<svg xmlns="http://www.w3.org/2000/svg" viewBox="0 0 761.038 130" width="761.038" height="130" role="img" aria-label="Baracut Reader">
  <!-- Baracut Reader brand asset. Generated by scripts/generate-brand-assets.ps1; do not edit by hand. -->
  <defs>
    <linearGradient id="h1" gradientUnits="userSpaceOnUse" x1="0" y1="0" x2="110" y2="130"><stop offset="0" stop-color="#14897F"/><stop offset="1" stop-color="#0A5A55"/></linearGradient>
    <linearGradient id="h2" gradientUnits="userSpaceOnUse" x1="0" y1="0" x2="110" y2="130"><stop offset="0" stop-color="#14897F"/><stop offset="1" stop-color="#0A5A55"/></linearGradient>
    <linearGradient id="h3" gradientUnits="userSpaceOnUse" x1="10" y1="130" x2="78" y2="72"><stop offset="0" stop-color="#E9A52A"/><stop offset="1" stop-color="#F6C445"/></linearGradient>
    <linearGradient id="h4" gradientUnits="userSpaceOnUse" x1="104" y1="4" x2="84" y2="22"><stop offset="0" stop-color="#FFFFFF"/><stop offset="1" stop-color="#B9E2D8"/></linearGradient>
  </defs>
  <g>
    <path d="M0 10A10 10 0 0 1 10 0H75Q86 19 108 31C108 53 97 68 80 68L0 118Z" fill="url(#h1)"/>
    <path d="M40 130L81.5 75.5Q82.5 69 88 69C101 70 110 84 110 100C110 117 98 130 81 130Z" fill="url(#h2)"/>
    <path d="M9 130L70.5 78.5Q76 73 81.5 75.5L40 130Z" fill="url(#h3)"/>
    <path d="M68 81Q74 72 81.5 75.5Q79 79 75 84Z" fill="#FCE3A0"/>
    <path d="M20.5 28H58.5A3.5 3.5 0 0 1 62 31.5V31.5A3.5 3.5 0 0 1 58.5 35H20.5A3.5 3.5 0 0 1 17 31.5V31.5A3.5 3.5 0 0 1 20.5 28Z" fill="#FFFFFF"/>
    <path d="M20.5 43H65.5A3.5 3.5 0 0 1 69 46.5V46.5A3.5 3.5 0 0 1 65.5 50H20.5A3.5 3.5 0 0 1 17 46.5V46.5A3.5 3.5 0 0 1 20.5 43Z" fill="#FFFFFF"/>
    <path d="M20.5 58H47.5A3.5 3.5 0 0 1 51 61.5V61.5A3.5 3.5 0 0 1 47.5 65H20.5A3.5 3.5 0 0 1 17 61.5V61.5A3.5 3.5 0 0 1 20.5 58Z" fill="#FFFFFF"/>
    <path d="M75 0C95 1 107 12 108 31Q86 19 75 0Z" fill="url(#h4)"/>
  </g>
  <path d="M161.558 69.29L161.558 82.784L176.3 82.784C179.576 82.784 182.059 82.251 183.749 81.185C185.439 80.119 186.284 78.416 186.284 76.076C186.284 73.788 185.439 72.085 183.749 70.967C182.059 69.849 179.576 69.29 176.3 69.29L161.558 69.29ZM161.558 47.216L161.558 60.086L174.116 60.086C177.184 60.086 179.537 59.553 181.175 58.487C182.813 57.421 183.632 55.796 183.632 53.612C183.632 51.48 182.813 49.881 181.175 48.815C179.537 47.749 177.184 47.216 174.116 47.216L161.558 47.216ZM149 37.7L175.676 37.7C182.54 37.7 187.701 39 191.159 41.6C194.617 44.2 196.346 47.632 196.346 51.896C196.346 54.756 195.644 57.239 194.24 59.345L188.861 63.888L190.652 64.415C193.304 65.533 195.371 67.184 196.853 69.368C198.335 71.552 199.076 74.23 199.076 77.402C199.076 82.082 197.23 85.735 193.538 88.361C189.846 90.987 184.412 92.3 177.236 92.3L149 92.3L149 37.7ZM224.426 74.75C221.566 74.75 219.603 75.218 218.537 76.154C217.471 77.09 216.938 78.26 216.938 79.664C216.938 81.224 217.549 82.459 218.771 83.369C219.993 84.279 221.67 84.734 223.802 84.734C225.83 84.734 227.65 84.253 229.262 83.291C230.874 82.329 232.044 80.912 232.772 79.04L232.772 74.75L224.426 74.75ZM224.738 49.712C231.134 49.712 236.1 51.22 239.636 54.236C243.172 57.252 244.94 61.958 244.94 68.354L244.94 92.3L233.552 92.3L233.552 86.738L232.772 88.225C231.966 89.252 230.978 90.116 229.808 90.818C227.468 92.222 224.452 92.924 220.76 92.924C217.484 92.924 214.676 92.365 212.336 91.247C209.996 90.129 208.202 88.608 206.954 86.684C205.706 84.76 205.082 82.602 205.082 80.21C205.082 77.714 205.693 75.53 206.915 73.658C208.137 71.786 210.074 70.317 212.726 69.251C215.378 68.185 218.836 67.652 223.1 67.652L232.772 67.652C232.772 65.052 231.979 63.024 230.393 61.568C228.807 60.112 226.376 59.384 223.1 59.384C220.864 59.384 218.667 59.735 216.509 60.437C214.351 61.139 212.518 62.088 211.01 63.284L206.642 54.782C208.93 53.17 211.686 51.922 214.91 51.038C218.134 50.154 221.41 49.712 224.738 49.712ZM281.99 49.712L281.99 60.944C281.47 60.892 281.002 60.853 280.586 60.827C280.17 60.801 279.728 60.788 279.26 60.788C275.932 60.788 273.241 61.737 271.187 63.635C269.133 65.533 268.106 68.484 268.106 72.488L268.106 92.3L255.938 92.3L255.938 50.336L267.56 50.336L267.56 56.133L268.359 54.85C269.361 53.726 270.55 52.78 271.928 52.013C274.684 50.479 278.038 49.712 281.99 49.712ZM303.128 74.75C300.268 74.75 298.305 75.218 297.239 76.154C296.173 77.09 295.64 78.26 295.64 79.664C295.64 81.224 296.251 82.459 297.473 83.369C298.695 84.279 300.372 84.734 302.504 84.734C304.532 84.734 306.352 84.253 307.964 83.291C309.576 82.329 310.746 80.912 311.474 79.04L311.474 74.75L303.128 74.75ZM303.44 49.712C309.836 49.712 314.802 51.22 318.338 54.236C321.874 57.252 323.642 61.958 323.642 68.354L323.642 92.3L312.254 92.3L312.254 86.738L311.474 88.225C310.668 89.252 309.68 90.116 308.51 90.818C306.17 92.222 303.154 92.924 299.462 92.924C296.186 92.924 293.378 92.365 291.038 91.247C288.698 90.129 286.904 88.608 285.656 86.684C284.408 84.76 283.784 82.602 283.784 80.21C283.784 77.714 284.395 75.53 285.617 73.658C286.839 71.786 288.776 70.317 291.428 69.251C294.08 68.185 297.538 67.652 301.802 67.652L311.474 67.652C311.474 65.052 310.681 63.024 309.095 61.568C307.509 60.112 305.078 59.384 301.802 59.384C299.566 59.384 297.369 59.735 295.211 60.437C293.053 61.139 291.22 62.088 289.712 63.284L285.344 54.782C287.632 53.17 290.388 51.922 293.612 51.038C296.836 50.154 300.112 49.712 303.44 49.712ZM355.232 49.712C359.652 49.712 363.5 50.635 366.776 52.481C370.052 54.327 372.47 56.966 374.03 60.398L364.592 65.468C363.5 63.492 362.135 62.036 360.497 61.1C358.859 60.164 357.078 59.696 355.154 59.696C353.074 59.696 351.202 60.164 349.538 61.1C347.874 62.036 346.561 63.362 345.599 65.078C344.637 66.794 344.156 68.874 344.156 71.318C344.156 73.762 344.637 75.842 345.599 77.558C346.561 79.274 347.874 80.6 349.538 81.536C351.202 82.472 353.074 82.94 355.154 82.94C357.078 82.94 358.859 82.485 360.497 81.575C362.135 80.665 363.5 79.196 364.592 77.168L374.03 82.316C372.47 85.696 370.052 88.309 366.776 90.155C363.5 92.001 359.652 92.924 355.232 92.924C350.708 92.924 346.678 92.001 343.142 90.155C339.606 88.309 336.837 85.748 334.835 82.472C332.833 79.196 331.832 75.478 331.832 71.318C331.832 67.106 332.833 63.375 334.835 60.125C336.837 56.875 339.606 54.327 343.142 52.481C346.678 50.635 350.708 49.712 355.232 49.712ZM380.816 50.336L392.984 50.336L392.984 72.254C392.984 75.738 393.725 78.299 395.207 79.937C396.689 81.575 398.782 82.394 401.486 82.394C403.358 82.394 405.022 81.991 406.478 81.185C407.934 80.379 409.078 79.131 409.91 77.441C410.742 75.751 411.158 73.632 411.158 71.084L411.158 50.336L423.326 50.336L423.326 92.3L411.782 92.3L411.782 87.21L411.285 87.942C410.251 89.04 409.052 89.96 407.687 90.701C404.957 92.183 401.98 92.924 398.756 92.924C395.272 92.924 392.165 92.248 389.435 90.896C386.705 89.544 384.586 87.477 383.078 84.695C381.57 81.913 380.816 78.364 380.816 74.048L380.816 50.336ZM436.118 41.054L448.286 41.054L448.286 50.336L458.738 50.336L458.738 59.696L448.286 59.696L448.286 77.714C448.286 79.482 448.754 80.847 449.69 81.809C450.626 82.771 451.9 83.252 453.512 83.252C455.436 83.252 457.074 82.732 458.426 81.692L461.702 90.272C460.454 91.156 458.959 91.819 457.217 92.261C455.475 92.703 453.668 92.924 451.796 92.924C446.856 92.924 443.008 91.663 440.252 89.141C437.496 86.619 436.118 82.862 436.118 77.87L436.118 59.696L429.644 59.696L429.644 50.336L436.118 50.336L436.118 41.054Z" fill="#0B3A38"/>
  <path d="M492.122 46.28L492.122 68.042L503.978 68.042C508.45 68.042 511.817 67.08 514.079 65.156C516.341 63.232 517.472 60.554 517.472 57.122C517.472 53.638 516.341 50.96 514.079 49.088C511.817 47.216 508.45 46.28 503.978 46.28L492.122 46.28ZM481.982 37.7L504.368 37.7C511.648 37.7 517.355 39.416 521.489 42.848C525.623 46.28 527.69 51.038 527.69 57.122C527.69 61.126 526.754 64.571 524.882 67.457C523.01 70.343 520.345 72.553 516.887 74.087L516.042 74.343L528.626 92.3L517.706 92.3L506.496 76.213L504.446 76.388L492.122 76.388L492.122 92.3L481.982 92.3L481.982 37.7ZM556.16 57.98C553.768 57.98 551.675 58.5 549.881 59.54C548.087 60.58 546.683 62.023 545.669 63.869C545.162 64.792 544.782 65.796 544.528 66.882L544.394 68.12L567.895 68.12L567.762 66.775C567.515 65.722 567.132 64.74 566.612 63.83C565.572 62.01 564.155 60.58 562.361 59.54C560.567 58.5 558.5 57.98 556.16 57.98ZM556.16 50.18C560.216 50.18 563.83 51.064 567.002 52.832C570.174 54.6 572.67 57.096 574.49 60.32C576.31 63.544 577.22 67.34 577.22 71.708C577.22 72.124 577.207 72.592 577.181 73.112C577.155 73.632 577.116 74.126 577.064 74.594L544.47 74.594L544.577 75.472C544.863 76.577 545.292 77.61 545.864 78.572C547.008 80.496 548.62 81.978 550.7 83.018C552.78 84.058 555.172 84.578 557.876 84.578C560.216 84.578 562.322 84.214 564.194 83.486C566.066 82.758 567.73 81.614 569.186 80.054L574.412 86.06C572.54 88.244 570.187 89.921 567.353 91.091C564.519 92.261 561.282 92.846 557.642 92.846C553.014 92.846 548.971 91.923 545.513 90.077C542.055 88.231 539.377 85.696 537.479 82.472C535.581 79.248 534.632 75.582 534.632 71.474C534.632 67.314 535.555 63.635 537.401 60.437C539.247 57.239 541.795 54.73 545.045 52.91C548.295 51.09 552 50.18 556.16 50.18ZM600.464 74.438C597.136 74.438 594.9 74.971 593.756 76.037C592.612 77.103 592.04 78.416 592.04 79.976C592.04 81.744 592.742 83.148 594.146 84.188C595.55 85.228 597.5 85.748 599.996 85.748C602.388 85.748 604.533 85.202 606.431 84.11C608.329 83.018 609.694 81.406 610.526 79.274L610.526 74.438L600.464 74.438ZM601.322 50.18C607.354 50.18 612.021 51.623 615.323 54.509C618.625 57.395 620.276 61.854 620.276 67.886L620.276 92.3L611.072 92.3L611.072 86.939L610.204 88.381C609.366 89.33 608.342 90.142 607.133 90.818C604.715 92.17 601.66 92.846 597.968 92.846C594.848 92.846 592.118 92.313 589.778 91.247C587.438 90.181 585.631 88.699 584.357 86.801C583.083 84.903 582.446 82.758 582.446 80.366C582.446 78.026 583.005 75.92 584.123 74.048C585.241 72.176 587.074 70.694 589.622 69.602C592.17 68.51 595.55 67.964 599.762 67.964L610.526 67.964L610.526 67.34C610.526 64.48 609.668 62.257 607.952 60.671C606.236 59.085 603.636 58.292 600.152 58.292C597.812 58.292 595.511 58.656 593.249 59.384C590.987 60.112 589.076 61.126 587.516 62.426L583.694 55.328C585.93 53.612 588.595 52.325 591.689 51.467C594.783 50.609 597.994 50.18 601.322 50.18ZM651.632 58.448C649.292 58.448 647.199 58.968 645.353 60.008C643.507 61.048 642.025 62.543 640.907 64.493C639.789 66.443 639.23 68.77 639.23 71.474C639.23 74.126 639.789 76.44 640.907 78.416C642.025 80.392 643.507 81.9 645.353 82.94C647.199 83.98 649.292 84.5 651.632 84.5C653.972 84.5 656.065 83.98 657.911 82.94C659.757 81.9 661.239 80.392 662.357 78.416C663.475 76.44 664.034 74.126 664.034 71.474C664.034 68.77 663.475 66.443 662.357 64.493C661.239 62.543 659.757 61.048 657.911 60.008C656.065 58.968 653.972 58.448 651.632 58.448ZM663.878 34.424L673.55 34.424L673.55 92.3L664.268 92.3L664.268 86.677L663.663 87.571C662.584 88.748 661.356 89.726 659.978 90.506C657.222 92.066 654.05 92.846 650.462 92.846C646.458 92.846 642.857 91.949 639.659 90.155C636.461 88.361 633.952 85.878 632.132 82.706C630.312 79.534 629.402 75.79 629.402 71.474C629.402 67.158 630.312 63.414 632.132 60.242C633.952 57.07 636.461 54.6 639.659 52.832C642.857 51.064 646.458 50.18 650.462 50.18C653.946 50.18 657.066 50.947 659.822 52.481C661.2 53.248 662.435 54.213 663.527 55.377L663.878 55.88L663.878 34.424ZM704.516 57.98C702.124 57.98 700.031 58.5 698.237 59.54C696.443 60.58 695.039 62.023 694.025 63.869C693.518 64.792 693.138 65.796 692.884 66.882L692.75 68.12L716.251 68.12L716.118 66.775C715.871 65.722 715.488 64.74 714.968 63.83C713.928 62.01 712.511 60.58 710.717 59.54C708.923 58.5 706.856 57.98 704.516 57.98ZM704.516 50.18C708.572 50.18 712.186 51.064 715.358 52.832C718.53 54.6 721.026 57.096 722.846 60.32C724.666 63.544 725.576 67.34 725.576 71.708C725.576 72.124 725.563 72.592 725.537 73.112C725.511 73.632 725.472 74.126 725.42 74.594L692.826 74.594L692.933 75.472C693.219 76.577 693.648 77.61 694.22 78.572C695.364 80.496 696.976 81.978 699.056 83.018C701.136 84.058 703.528 84.578 706.232 84.578C708.572 84.578 710.678 84.214 712.55 83.486C714.422 82.758 716.086 81.614 717.542 80.054L722.768 86.06C720.896 88.244 718.543 89.921 715.709 91.091C712.875 92.261 709.638 92.846 705.998 92.846C701.37 92.846 697.327 91.923 693.869 90.077C690.411 88.231 687.733 85.696 685.835 82.472C683.937 79.248 682.988 75.582 682.988 71.474C682.988 67.314 683.911 63.635 685.757 60.437C687.603 57.239 690.151 54.73 693.401 52.91C696.651 51.09 700.356 50.18 704.516 50.18ZM759.038 50.18L759.038 59.462C758.622 59.358 758.232 59.293 757.868 59.267C757.504 59.241 757.14 59.228 756.776 59.228C753.084 59.228 750.146 60.307 747.962 62.465C745.778 64.623 744.686 67.834 744.686 72.098L744.686 92.3L734.936 92.3L734.936 50.648L744.218 50.648L744.218 57.08L745.534 55.055C746.516 53.989 747.676 53.092 749.015 52.364C751.693 50.908 755.034 50.18 759.038 50.18Z" fill="#0F7C75"/>
</svg>